<?xml version="1.0" standalone="no"?>
<!DOCTYPE svg PUBLIC "-//W3C//DTD SVG 20010904//EN"
 "http://www.w3.org/TR/2001/REC-SVG-20010904/DTD/svg10.dtd">
<svg version="1.0" xmlns="http://www.w3.org/2000/svg"
 width="2048.000000pt" height="2048.000000pt" viewBox="0 0 2048.000000 2048.000000"
 preserveAspectRatio="xMidYMid meet">
<metadata>
Created by potrace 1.11, written by Peter Selinger 2001-2013
</metadata>
<g transform="translate(0.000000,2048.000000) scale(0.100000,-0.100000)"
fill="#000000" stroke="none">
<path d="M8415 14161 c-37 -9 -116 -54 -138 -79 -9 -10 -23 -35 -32 -55 -14
-35 -15 -269 -9 -2467 l7 -2429 -729 -3 c-401 -2 -733 -1 -738 1 -5 2 -6 1022
-3 2410 5 2585 8 2451 -45 2508 -52 58 -121 66 -208 27 -54 -24 -76 -48 -396
-422 -374 -438 -539 -631 -813 -952 -101 -118 -232 -271 -291 -340 -59 -69
-163 -190 -231 -270 -165 -194 -240 -282 -474 -555 -109 -126 -221 -257 -249
-291 -28 -33 -114 -134 -191 -223 -173 -202 -451 -527 -740 -866 -228 -268
-595 -697 -725 -848 -121 -141 -139 -189 -101 -273 22 -47 73 -84 131 -91 76
-10 108 16 315 259 203 238 931 1090 1045 1223 38 44 128 150 201 235 72 85
167 196 209 245 43 50 201 234 351 410 262 308 408 478 619 725 55 63 172 201
262 306 663 778 994 1161 997 1158 3 -3 4 -1034 3 -2292 l-3 -2287 23 -45 c17
-33 35 -51 68 -68 l45 -23 885 7 c845 6 888 7 954 26 82 24 119 49 143 97 17
34 17 159 14 2475 l-3 2439 1093 -7 c602 -3 1289 -9 1528 -12 l434 -7 -6 -801
c-16 -1904 -22 -2842 -22 -3453 0 -642 0 -652 21 -679 51 -69 -25 -63 950 -69
1002 -6 948 -9 1031 73 41 41 61 76 132 237 46 105 128 285 182 400 118 256
217 474 359 790 59 132 154 339 210 460 56 121 113 243 125 270 149 328 224
494 255 565 21 47 63 139 95 205 31 66 115 251 187 410 72 160 201 443 288
630 86 187 194 424 241 528 46 103 87 187 90 187 6 0 45 -96 165 -410 37 -96
91 -236 120 -310 29 -74 79 -202 110 -285 31 -82 76 -199 99 -260 60 -155 185
-481 260 -675 76 -199 191 -498 275 -715 34 -88 81 -212 105 -275 24 -63 53
-137 65 -165 12 -27 39 -97 60 -155 21 -58 56 -150 78 -205 69 -172 92 -233
92 -240 0 -3 9 -25 19 -48 11 -23 46 -114 79 -202 34 -88 88 -230 121 -315 33
-85 89 -231 125 -325 37 -93 74 -181 84 -195 25 -34 90 -70 127 -70 45 0 116
40 142 79 34 51 31 112 -13 218 -20 48 -58 146 -84 218 -27 71 -81 213 -121
315 -74 192 -158 410 -273 710 -37 96 -73 189 -80 205 -8 17 -17 41 -21 55 -4
14 -48 128 -97 255 -50 126 -126 324 -170 440 -107 281 -188 491 -231 600 -19
50 -49 126 -65 170 -17 44 -60 157 -97 250 -62 158 -116 298 -250 650 -29 77
-83 217 -120 310 -36 94 -93 240 -125 325 -139 366 -198 517 -213 546 -53 101
-174 123 -258 47 -44 -40 -55 -58 -110 -178 -20 -44 -98 -215 -174 -380 -75
-165 -171 -374 -212 -465 -94 -207 -167 -367 -386 -845 -95 -209 -200 -438
-232 -510 -32 -71 -115 -254 -185 -405 -70 -151 -166 -360 -213 -465 -47 -104
-126 -278 -175 -385 -49 -107 -136 -298 -194 -425 -58 -126 -122 -266 -143
-310 -20 -44 -66 -145 -101 -225 -36 -80 -81 -182 -102 -228 -20 -46 -52 -100
-70 -119 l-32 -36 -707 6 c-388 4 -708 9 -710 11 -2 2 1 489 6 1082 14 1516
20 2145 27 3029 l7 770 -21 42 c-38 74 -114 113 -183 92 -32 -9 -2858 -5
-3184 5 -71 3 -144 1 -160 -3z"/>
</g>
</svg>
